<?xml version="1.0" encoding="UTF-8"?>
<!DOCTYPE svg PUBLIC "-//W3C//DTD SVG 1.1//EN" "http://www.w3.org/Graphics/SVG/1.1/DTD/svg11.dtd">
<svg version="1.2" width="260mm" height="100mm" viewBox="0 0 26000 10000" preserveAspectRatio="xMidYMid" fill-rule="evenodd" stroke-width="28.222" stroke-linejoin="round" xmlns="http://www.w3.org/2000/svg" xmlns:ooo="http://xml.openoffice.org/svg/export" xmlns:xlink="http://www.w3.org/1999/xlink" xmlns:presentation="http://sun.com/xmlns/staroffice/presentation" xmlns:smil="http://www.w3.org/2001/SMIL20/" xmlns:anim="urn:oasis:names:tc:opendocument:xmlns:animation:1.0" xml:space="preserve">
 <defs class="ClipPathGroup">
  <clipPath id="presentation_clip_path" clipPathUnits="userSpaceOnUse">
   <rect x="0" y="0" width="26000" height="10000"/>
  </clipPath>
  <clipPath id="presentation_clip_path_shrink" clipPathUnits="userSpaceOnUse">
   <rect x="26" y="10" width="25948" height="9980"/>
  </clipPath>
 </defs>
 <defs class="TextShapeIndex">
  <g ooo:slide="id1" ooo:id-list="id3 id4 id5 id6 id7 id8"/>
 </defs>
 <defs class="EmbeddedBulletChars">
  <g id="bullet-char-template-57356" transform="scale(0.00048828125,-0.00048828125)">
   <path d="M 580,1141 L 1163,571 580,0 -4,571 580,1141 Z"/>
  </g>
  <g id="bullet-char-template-57354" transform="scale(0.00048828125,-0.00048828125)">
   <path d="M 8,1128 L 1137,1128 1137,0 8,0 8,1128 Z"/>
  </g>
  <g id="bullet-char-template-10146" transform="scale(0.00048828125,-0.00048828125)">
   <path d="M 174,0 L 602,739 174,1481 1456,739 174,0 Z M 1358,739 L 309,1346 659,739 1358,739 Z"/>
  </g>
  <g id="bullet-char-template-10132" transform="scale(0.00048828125,-0.00048828125)">
   <path d="M 2015,739 L 1276,0 717,0 1260,543 174,543 174,936 1260,936 717,1481 1274,1481 2015,739 Z"/>
  </g>
  <g id="bullet-char-template-10007" transform="scale(0.00048828125,-0.00048828125)">
   <path d="M 0,-2 C -7,14 -16,27 -25,37 L 356,567 C 262,823 215,952 215,954 215,979 228,992 255,992 264,992 276,990 289,987 310,991 331,999 354,1012 L 381,999 492,748 772,1049 836,1024 860,1049 C 881,1039 901,1025 922,1006 886,937 835,863 770,784 769,783 710,716 594,584 L 774,223 C 774,196 753,168 711,139 L 727,119 C 717,90 699,76 672,76 641,76 570,178 457,381 L 164,-76 C 142,-110 111,-127 72,-127 30,-127 9,-110 8,-76 1,-67 -2,-52 -2,-32 -2,-23 -1,-13 0,-2 Z"/>
  </g>
  <g id="bullet-char-template-10004" transform="scale(0.00048828125,-0.00048828125)">
   <path d="M 285,-33 C 182,-33 111,30 74,156 52,228 41,333 41,471 41,549 55,616 82,672 116,743 169,778 240,778 293,778 328,747 346,684 L 369,508 C 377,444 397,411 428,410 L 1163,1116 C 1174,1127 1196,1133 1229,1133 1271,1133 1292,1118 1292,1087 L 1292,965 C 1292,929 1282,901 1262,881 L 442,47 C 390,-6 338,-33 285,-33 Z"/>
  </g>
  <g id="bullet-char-template-9679" transform="scale(0.00048828125,-0.00048828125)">
   <path d="M 813,0 C 632,0 489,54 383,161 276,268 223,411 223,592 223,773 276,916 383,1023 489,1130 632,1184 813,1184 992,1184 1136,1130 1245,1023 1353,916 1407,772 1407,592 1407,412 1353,268 1245,161 1136,54 992,0 813,0 Z"/>
  </g>
  <g id="bullet-char-template-8226" transform="scale(0.00048828125,-0.00048828125)">
   <path d="M 346,457 C 273,457 209,483 155,535 101,586 74,649 74,723 74,796 101,859 155,911 209,963 273,989 346,989 419,989 480,963 531,910 582,859 608,796 608,723 608,648 583,586 532,535 482,483 420,457 346,457 Z"/>
  </g>
  <g id="bullet-char-template-8211" transform="scale(0.00048828125,-0.00048828125)">
   <path d="M -4,459 L 1135,459 1135,606 -4,606 -4,459 Z"/>
  </g>
  <g id="bullet-char-template-61548" transform="scale(0.00048828125,-0.00048828125)">
   <path d="M 173,740 C 173,903 231,1043 346,1159 462,1274 601,1332 765,1332 928,1332 1067,1274 1183,1159 1299,1043 1357,903 1357,740 1357,577 1299,437 1183,322 1067,206 928,148 765,148 601,148 462,206 346,322 231,437 173,577 173,740 Z"/>
  </g>
 </defs>
 <defs class="TextEmbeddedBitmaps"/>
 <g>
  <g id="id2" class="Master_Slide">
   <g id="bg-id2" class="Background"/>
   <g id="bo-id2" class="BackgroundObjects"/>
  </g>
 </g>
 <g class="SlideGroup">
  <g>
   <g id="container-id1">
    <g id="id1" class="Slide" clip-path="url(#presentation_clip_path)">
     <g class="Page">
      <g class="Group">
       <g class="Group">
        <g class="com.sun.star.drawing.ClosedBezierShape">
         <g id="id3">
          <rect class="BoundingBox" stroke="none" fill="none" x="16458" y="6497" width="9256" height="3320"/>
          <path fill="rgb(177,179,180)" stroke="none" d="M 17206,9769 L 17206,7104 16544,7104 16553,7097 C 16622,7025 16660,6937 16660,6831 16660,6727 16622,6636 16553,6567 16522,6536 16490,6514 16459,6498 L 19152,6498 19152,7104 18069,7104 18069,9769 17206,9769 Z M 17206,9769 L 17206,9769 Z M 20810,9524 C 20659,9624 20499,9697 20333,9744 20163,9791 19987,9816 19796,9816 19416,9816 19115,9712 18901,9502 18681,9295 18571,9003 18571,8636 18571,8293 18678,8017 18892,7813 19105,7609 19388,7505 19739,7505 20085,7505 20361,7615 20562,7838 20763,8061 20863,8369 20863,8758 L 20863,8783 19293,8783 19293,8793 C 19293,8968 19353,9106 19472,9207 19592,9310 19758,9361 19965,9361 20107,9361 20248,9336 20386,9285 20527,9235 20668,9163 20810,9066 L 20810,9524 Z M 20810,9524 L 20810,9524 Z M 19297,8441 L 20160,8441 C 20147,8297 20103,8184 20028,8102 19956,8020 19859,7979 19742,7979 19623,7979 19523,8020 19444,8102 19366,8184 19315,8297 19297,8441 Z M 19297,8441 L 19297,8441 Z M 23107,9668 C 23004,9715 22894,9753 22775,9775 22662,9797 22533,9810 22398,9810 22003,9810 21689,9709 21456,9502 21224,9295 21108,9015 21108,8664 21108,8315 21221,8030 21450,7819 21682,7606 21987,7502 22370,7502 22492,7502 22611,7512 22725,7537 22841,7562 22957,7597 23070,7647 L 23070,8193 C 22951,8143 22844,8105 22746,8083 22649,8058 22558,8045 22473,8045 22276,8045 22119,8102 22009,8212 21896,8322 21839,8469 21839,8661 21839,8855 21896,9006 22012,9116 22125,9223 22288,9276 22505,9276 22596,9276 22690,9263 22787,9238 22888,9213 22994,9175 23107,9125 L 23107,9668 Z M 23107,9668 L 23107,9668 Z M 23512,9769 L 23512,6498 24212,6498 24212,7829 C 24319,7716 24435,7634 24551,7581 24671,7531 24806,7505 24963,7505 25204,7505 25390,7578 25521,7725 25650,7873 25713,8086 25713,8366 L 25713,9769 25016,9769 25016,8463 C 25016,8306 24991,8190 24941,8114 24887,8039 24809,8005 24705,8005 24605,8005 24517,8033 24432,8093 24351,8152 24278,8243 24212,8356 L 24212,9769 23512,9769 Z"/>
         </g>
        </g>
        <g class="com.sun.star.drawing.ClosedBezierShape">
         <g id="id4">
          <rect class="BoundingBox" stroke="none" fill="none" x="7231" y="6460" width="9275" height="3360"/>
          <path fill="rgb(90,161,110)" stroke="none" d="M 8713,9800 L 7232,6498 8104,6498 8914,8400 9774,6498 10660,6498 9068,9800 8713,9800 Z M 8713,9800 L 8713,9800 Z M 10820,9772 L 10820,7553 11520,7553 11520,9772 10820,9772 Z M 10820,9772 L 10820,9772 Z M 10795,6834 C 10795,6727 10832,6639 10904,6567 10977,6495 11064,6460 11168,6460 11275,6460 11363,6495 11435,6567 11507,6639 11542,6727 11542,6834 11542,6937 11507,7025 11435,7097 11363,7170 11275,7204 11168,7204 11064,7204 10977,7170 10904,7097 10832,7025 10795,6937 10795,6834 Z M 10795,6834 L 10795,6834 Z M 14144,9530 C 13993,9628 13833,9700 13667,9747 13497,9794 13318,9819 13130,9819 12747,9819 12449,9715 12232,9505 12019,9298 11909,9009 11909,8636 11909,8297 12016,8020 12226,7816 12439,7612 12722,7509 13074,7509 13419,7509 13695,7622 13896,7841 14097,8064 14197,8369 14197,8758 L 14197,8783 12628,8783 12628,8793 C 12628,8968 12687,9110 12807,9210 12926,9314 13089,9364 13300,9364 13441,9364 13579,9339 13720,9288 13861,9241 14003,9166 14144,9069 L 14144,9530 Z M 14144,9530 L 14144,9530 Z M 12631,8444 L 13494,8441 C 13478,8297 13438,8184 13362,8105 13287,8023 13193,7983 13077,7983 12957,7983 12857,8023 12778,8105 12700,8184 12650,8300 12631,8444 Z M 12631,8444 L 12631,8444 Z M 14574,9772 L 14574,6498 15274,6498 15274,9772 14574,9772 Z M 14574,9772 L 14574,9772 Z M 15779,9772 L 15779,7553 16479,7553 16479,9772 15779,9772 Z M 15779,9772 L 15779,9772 Z M 15757,6834 C 15757,6727 15792,6639 15864,6567 15936,6495 16024,6460 16131,6460 16235,6460 16326,6495 16395,6567 16467,6639 16505,6727 16505,6834 16505,6937 16467,7025 16395,7097 16326,7170 16235,7204 16131,7204 16024,7204 15936,7170 15864,7097 15792,7025 15757,6937 15757,6834 Z"/>
         </g>
        </g>
        <g class="com.sun.star.drawing.PolyPolygonShape">
         <g id="id5">
          <rect class="BoundingBox" stroke="none" fill="none" x="1201" y="3474" width="1672" height="3236"/>
          <path fill="rgb(220,207,112)" stroke="none" d="M 2558,4938 L 2862,4542 2871,4552 2871,3475 1201,3475 1201,6708 2448,5079 2558,4938 Z"/>
         </g>
        </g>
        <g class="com.sun.star.drawing.PolyPolygonShape">
         <g id="id6">
          <rect class="BoundingBox" stroke="none" fill="none" x="3508" y="1826" width="1672" height="4582"/>
          <path fill="rgb(166,185,112)" stroke="none" d="M 5179,6215 L 5179,1827 3509,1827 3509,5114 4984,6407 5179,6215 Z"/>
         </g>
        </g>
        <g class="com.sun.star.drawing.PolyPolygonShape">
         <g id="id7">
          <rect class="BoundingBox" stroke="none" fill="none" x="5815" y="182" width="1672" height="5401"/>
          <path fill="rgb(90,161,110)" stroke="none" d="M 7486,182 L 5816,182 5816,5581 7486,3924 7486,182 Z"/>
         </g>
        </g>
       </g>
       <g class="com.sun.star.drawing.PolyPolygonShape">
        <g id="id8">
         <rect class="BoundingBox" stroke="none" fill="none" x="287" y="2516" width="9862" height="6158"/>
         <path fill="rgb(196,198,200)" stroke="none" d="M 8041,3145 L 8455,3609 7479,4579 5812,6237 5172,6871 4996,7047 3505,5738 3066,5348 2924,5226 2868,5298 2818,5364 1223,7452 287,8673 1411,7452 2868,5873 2949,5785 3505,6372 4525,7452 4808,7750 4987,7941 5203,7756 5812,7238 7479,5816 9152,4385 9582,4868 10147,2517 8041,3145 Z"/>
        </g>
       </g>
      </g>
     </g>
    </g>
   </g>
  </g>
 </g>
</svg>